<?xml version="1.0" encoding="UTF-8" standalone="no"?>
<!DOCTYPE svg PUBLIC "-//W3C//DTD SVG 1.1//EN" "http://www.w3.org/Graphics/SVG/1.1/DTD/svg11.dtd">
<svg width="100%" height="100%" viewBox="0 0 225 225" version="1.1" xmlns="http://www.w3.org/2000/svg" xmlns:xlink="http://www.w3.org/1999/xlink" xml:space="preserve" style="fill-rule:evenodd;clip-rule:evenodd;stroke-linejoin:round;stroke-miterlimit:1.41421;">
    <g transform="matrix(4.16667,0,0,4.16667,0,0)">
        <g transform="matrix(0.760643,0,0,0.760643,6.87475,0.263814)">
            <path d="M0,8.466L0,51.466C0,51.787 0.154,52.089 0.416,52.278C0.588,52.402 0.793,52.466 1,52.466C1.106,52.466 1.213,52.449 1.316,52.414L18,46.853L18,32.905C17.751,32.957 17.489,32.989 17.249,33.053C17.163,33.075 17.077,33.086 16.992,33.086C16.549,33.086 16.145,32.79 16.026,32.342C15.885,31.809 16.203,31.261 16.736,31.119C17.146,31.011 17.57,30.923 18,30.845L18,1.745L0.684,7.518C0.275,7.654 0,8.035 0,8.466ZM9.116,40.07C8.222,42.008 7.992,43.589 7.991,43.604C7.921,44.103 7.492,44.465 7.001,44.465C6.956,44.465 6.909,44.462 6.863,44.455C6.317,44.38 5.935,43.877 6.009,43.33C6.019,43.255 6.273,41.457 7.3,39.231C7.531,38.729 8.125,38.511 8.627,38.742C9.128,38.974 9.347,39.568 9.116,40.07ZM8.293,25.173C7.902,24.782 7.902,24.15 8.293,23.759C8.684,23.368 9.316,23.368 9.707,23.759L11,25.052L12.293,23.759C12.684,23.368 13.316,23.368 13.707,23.759C14.098,24.15 14.098,24.782 13.707,25.173L12.414,26.466L13.707,27.759C14.098,28.15 14.098,28.782 13.707,29.173C13.512,29.368 13.256,29.466 13,29.466C12.744,29.466 12.488,29.368 12.293,29.173L11,27.88L9.707,29.173C9.512,29.368 9.256,29.466 9,29.466C8.744,29.466 8.488,29.368 8.293,29.173C7.902,28.782 7.902,28.15 8.293,27.759L9.586,26.466L8.293,25.173ZM13.868,34.503C12.837,35.149 11.906,35.961 11.1,36.917C10.902,37.151 10.62,37.272 10.335,37.272C10.107,37.272 9.878,37.195 9.691,37.037C9.269,36.681 9.215,36.05 9.571,35.628C10.511,34.513 11.599,33.565 12.806,32.808C13.273,32.514 13.89,32.657 14.184,33.124C14.477,33.592 14.335,34.209 13.868,34.503ZM11,9.466C13.757,9.466 16,11.709 16,14.466C16,16.881 14.279,18.9 12,19.365L12,21.466C12,22.019 11.552,22.466 11,22.466C10.448,22.466 10,22.019 10,21.466L10,19.365C7.721,18.9 6,16.881 6,14.466C6,11.709 8.243,9.466 11,9.466Z" style="fill-rule:nonzero;"/>
            <circle cx="11" cy="14.466" r="3"/>
            <path d="M29.17,31.898C28.729,31.713 28.471,31.585 28.454,31.576C28.389,31.543 28.32,31.516 28.249,31.498C27.166,31.22 26.099,31 25.076,30.844C24.531,30.758 24.02,31.135 23.936,31.681C23.853,32.227 24.228,32.738 24.774,32.821C25.7,32.963 26.667,33.161 27.651,33.411C27.785,33.475 28.041,33.596 28.399,33.745C28.525,33.798 28.656,33.822 28.784,33.822C29.175,33.822 29.547,33.592 29.707,33.208C29.92,32.697 29.68,32.111 29.17,31.898Z" style="fill-rule:nonzero;"/>
            <path d="M45.07,28.139C45.19,28.186 45.313,28.207 45.434,28.207C45.834,28.207 46.211,27.966 46.366,27.571C46.836,26.372 47.213,25.018 47.489,23.547C47.591,23.005 47.233,22.483 46.69,22.38C46.144,22.29 45.625,22.637 45.523,23.18C45.271,24.528 44.928,25.76 44.504,26.843C44.303,27.357 44.556,27.937 45.07,28.139Z" style="fill-rule:nonzero;"/>
            <path d="M40.423,34.196C40.576,34.196 40.732,34.161 40.877,34.087C42.169,33.426 43.308,32.488 44.261,31.301C44.607,30.87 44.538,30.24 44.107,29.895C43.677,29.552 43.047,29.619 42.701,30.049C41.925,31.016 41.005,31.775 39.966,32.306C39.474,32.558 39.279,33.16 39.531,33.652C39.709,33.996 40.06,34.196 40.423,34.196Z" style="fill-rule:nonzero;"/>
            <path d="M46.923,20.397C46.945,20.398 46.966,20.399 46.988,20.399C47.511,20.399 47.951,19.993 47.985,19.462C48.047,18.501 48.078,17.484 48.078,16.442C48.078,16.095 48.075,15.743 48.068,15.384C48.058,14.831 47.578,14.411 47.05,14.402C46.498,14.412 46.058,14.868 46.068,15.42C46.074,15.767 46.078,16.108 46.078,16.442C46.078,17.442 46.048,18.415 45.989,19.335C45.954,19.886 46.372,20.362 46.923,20.397Z" style="fill-rule:nonzero;"/>
            <path d="M20,46.959L35,53.136L35,9.805L20,1.864L20,46.959ZM22,5.186L33,11.01L33,50.15L22,45.62L22,5.186Z" style="fill-rule:nonzero;"/>
            <path d="M37,9.805L37,53.136L54,45.959L54,0.864L37,9.805ZM52,44.633L39,50.121L39,11.013L52,4.176L52,44.633Z" style="fill-rule:nonzero;"/>
        </g>
    </g>
</svg>
